<svg xmlns="http://www.w3.org/2000/svg" viewBox="0 0 800 800">
  <defs>
    <linearGradient id="coat" x1="0" y1="0" x2="1" y2="1">
      <stop offset="0%" stop-color="#b5652a"/>
      <stop offset="100%" stop-color="#7a3b12"/>
    </linearGradient>
  </defs>

  <g>
    <ellipse cx="400" cy="300" rx="180" ry="200" fill="url(#coat)" stroke="#3b1f0f" stroke-width="8"/>
    <path d="M300 120 L340 40 L380 140 Z" fill="url(#coat)" stroke="#3b1f0f" stroke-width="6"/>
    <path d="M500 120 L460 40 L420 140 Z" fill="url(#coat)" stroke="#3b1f0f" stroke-width="6"/>
    <circle cx="340" cy="280" r="20" fill="#111"/>
    <circle cx="460" cy="280" r="20" fill="#111"/>
    <path d="M380 140 C370 250 370 350 400 450 C430 350 430 250 420 140 Z" fill="#fff"/>
    <ellipse cx="400" cy="420" rx="60" ry="40" fill="#f2c6a0"/>
  </g>

  <g>
    <path d="M260 450 C260 650 540 650 540 450 L500 450 C500 600 300 600 300 450 Z"
          fill="#ffffff" stroke="#d0d0d0" stroke-width="6"/>
    <path d="M300 450 L380 520 L400 450 Z" fill="#f5f5f5"/>
    <path d="M500 450 L420 520 L400 450 Z" fill="#f5f5f5"/>
  </g>

  <g>
    <circle cx="500" cy="520" r="35" fill="#ffffff" stroke="#333" stroke-width="5"/>
    <text x="500" y="530" text-anchor="middle" font-size="26" font-family="Arial" fill="#333" font-weight="bold">Dr</text>
  </g>

</svg>
