<svg viewBox="0 0 200 280" xmlns="http://www.w3.org/2000/svg">
  <!-- Blouse blanche -->
  <ellipse cx="100" cy="150" rx="65" ry="85" fill="white" stroke="#ddd" stroke-width="2"/>
  <rect x="50" y="120" width="100" height="120" fill="white" stroke="#ddd" stroke-width="2"/>
  
  <!-- Manches -->
  <ellipse cx="35" cy="140" rx="20" ry="45" fill="white" stroke="#ddd" stroke-width="2"/>
  <ellipse cx="165" cy="140" rx="20" ry="45" fill="white" stroke="#ddd" stroke-width="2"/>
  
  <!-- Boutons de la blouse -->
  <circle cx="100" cy="130" r="3" fill="#999"/>
  <circle cx="100" cy="160" r="3" fill="#999"/>
  <circle cx="100" cy="190" r="3" fill="#999"/>
  
  <!-- Tête du bulldog (noir) -->
  <ellipse cx="100" cy="80" rx="55" ry="60" fill="#1a1a1a"/>
  
  <!-- Oreilles -->
  <ellipse cx="60" cy="35" rx="18" ry="25" fill="#1a1a1a"/>
  <ellipse cx="140" cy="35" rx="18" ry="25" fill="#1a1a1a"/>
  <ellipse cx="60" cy="40" rx="10" ry="15" fill="#3a3a3a"/>
  <ellipse cx="140" cy="40" rx="10" ry="15" fill="#3a3a3a"/>
  
  <!-- Museau (plus clair) -->
  <ellipse cx="100" cy="95" rx="40" ry="35" fill="#2a2a2a"/>
  
  <!-- Zone blanche autour des yeux -->
  <ellipse cx="75" cy="65" rx="12" ry="15" fill="white"/>
  <ellipse cx="125" cy="65" rx="12" ry="15" fill="white"/>
  
  <!-- Lunettes -->
  <!-- Monture gauche -->
  <circle cx="70" cy="65" r="15" fill="none" stroke="#333" stroke-width="2.5"/>
  <circle cx="70" cy="65" r="11" fill="none" stroke="#FFD700" stroke-width="1.5"/>
  <!-- Monture droite -->
  <circle cx="130" cy="65" r="15" fill="none" stroke="#333" stroke-width="2.5"/>
  <circle cx="130" cy="65" r="11" fill="none" stroke="#FFD700" stroke-width="1.5"/>
  <!-- Pont des lunettes -->
  <line x1="85" y1="65" x2="115" y2="65" stroke="#333" stroke-width="2.5"/>
  
  <!-- Yeux -->
  <circle cx="70" cy="65" r="4" fill="white"/>
  <circle cx="70" cy="65" r="2.5" fill="black"/>
  <circle cx="130" cy="65" r="4" fill="white"/>
  <circle cx="130" cy="65" r="2.5" fill="black"/>
  <!-- Petits reflets dans les yeux -->
  <circle cx="71" cy="63" r="1" fill="white"/>
  <circle cx="131" cy="63" r="1" fill="white"/>
  
  <!-- Nez -->
  <ellipse cx="100" cy="85" rx="6" ry="5" fill="#1a1a1a"/>
  <ellipse cx="100" cy="85" rx="4" ry="3" fill="black"/>
  
  <!-- Bouche -->
  <path d="M 100 90 Q 85 98 75 95" stroke="#1a1a1a" stroke-width="2" fill="none" stroke-linecap="round"/>
  <path d="M 100 90 Q 115 98 125 95" stroke="#1a1a1a" stroke-width="2" fill="none" stroke-linecap="round"/>
  
  <!-- Petites rides de bulldog -->
  <path d="M 85 78 Q 80 80 78 85" stroke="#0a0a0a" stroke-width="1.5" fill="none" opacity="0.5"/>
  <path d="M 115 78 Q 120 80 122 85" stroke="#0a0a0a" stroke-width="1.5" fill="none" opacity="0.5"/>
  
  <!-- Expression joviale - sourcils -->
  <path d="M 62 55 Q 70 50 78 55" stroke="#666" stroke-width="1.5" fill="none" stroke-linecap="round"/>
  <path d="M 122 55 Q 130 50 138 55" stroke="#666" stroke-width="1.5" fill="none" stroke-linecap="round"/>
</svg>